<?xml version="1.0" encoding="UTF-8"?>
<svg version="1.1" xmlns="http://www.w3.org/2000/svg" width="64" height="64">
<path d="M0 0 C5.28 0 10.56 0 16 0 C16 14.52 16 29.04 16 44 C10.72 44 5.44 44 0 44 C0 29.48 0 14.96 0 0 Z M4 4 C4 15.88 4 27.76 4 40 C6.64 40 9.28 40 12 40 C12 28.12 12 16.24 12 4 C9.36 4 6.72 4 4 4 Z " fill="#000000" transform="translate(36,10)"/>
<path d="M0 0 C5.28 0 10.56 0 16 0 C16 14.52 16 29.04 16 44 C10.72 44 5.44 44 0 44 C0 29.48 0 14.96 0 0 Z M4 4 C4 15.88 4 27.76 4 40 C6.64 40 9.28 40 12 40 C12 28.12 12 16.24 12 4 C9.36 4 6.72 4 4 4 Z " fill="#000000" transform="translate(12,10)"/>
</svg>
